<?xml version="1.0" standalone="no"?>
<!DOCTYPE svg PUBLIC "-//W3C//DTD SVG 20010904//EN"
 "http://www.w3.org/TR/2001/REC-SVG-20010904/DTD/svg10.dtd">
<svg version="1.0" xmlns="http://www.w3.org/2000/svg"
 width="1000.000000pt" height="1000.000000pt" viewBox="0 0 1000.000000 1000.000000"
 preserveAspectRatio="xMidYMid meet">

<g transform="translate(0.000000,1000.000000) scale(0.100000,-0.100000)"
fill="#000000" stroke="none">
<path d="M2800 7450 l0 -50 -150 0 -150 0 0 -50 0 -50 -150 0 -150 0 0 -50 0
-50 -200 0 -200 0 0 -50 0 -50 -200 0 -200 0 0 -50 0 -50 -150 0 -150 0 0 -50
0 -50 -150 0 -150 0 0 -50 0 -50 -150 0 -150 0 0 -100 0 -100 -50 0 -50 0 0
-100 0 -100 -50 0 -50 0 0 -150 0 -150 -50 0 -50 0 0 -150 0 -150 100 0 100 0
0 50 0 50 150 0 150 0 0 50 0 50 150 0 150 0 0 50 0 50 150 0 150 0 0 50 0 50
150 0 150 0 0 50 0 50 100 0 100 0 0 50 0 50 200 0 200 0 0 50 0 50 150 0 150
0 0 50 0 50 300 0 300 0 0 50 0 50 800 0 800 0 0 50 0 50 -50 0 -50 0 0 50 0
50 -50 0 -50 0 0 50 0 50 -50 0 -50 0 0 50 0 50 -50 0 -50 0 0 50 0 50 -50 0
-50 0 0 50 0 50 -50 0 -50 0 0 50 0 50 -50 0 -50 0 0 50 0 50 -600 0 -600 0 0
-50z"/>
<path d="M5200 5950 l0 -50 -300 0 -300 0 0 -50 0 -50 -350 0 -350 0 0 -50 0
-50 -200 0 -200 0 0 -50 0 -50 -250 0 -250 0 0 -50 0 -50 -300 0 -300 0 0 -50
0 -50 -200 0 -200 0 0 -50 0 -50 -250 0 -250 0 0 -50 0 -50 -150 0 -150 0 0
-50 0 -50 -150 0 -150 0 0 -50 0 -50 -150 0 -150 0 0 -50 0 -50 -100 0 -100 0
0 -50 0 -50 -100 0 -100 0 0 -50 0 -50 -100 0 -100 0 0 -750 0 -750 100 0 100
0 0 -50 0 -50 200 0 200 0 0 -50 0 -50 150 0 150 0 0 -50 0 -50 150 0 150 0 0
-50 0 -50 50 0 50 0 0 -50 0 -50 50 0 50 0 0 -50 0 -50 -50 0 -50 0 0 -50 0
-50 -50 0 -50 0 0 -50 0 -50 -50 0 -50 0 0 -50 0 -50 -50 0 -50 0 0 -50 0 -50
-50 0 -50 0 0 -50 0 -50 -50 0 -50 0 0 -50 0 -50 -50 0 -50 0 0 -100 0 -100
-50 0 -50 0 0 -150 0 -150 -50 0 -50 0 0 -150 0 -150 -50 0 -50 0 0 -150 0
-150 -50 0 -50 0 0 -150 0 -150 -50 0 -50 0 0 -150 0 -150 -50 0 -50 0 0 -150
0 -150 2900 0 2900 0 0 150 0 150 -50 0 -50 0 0 250 0 250 50 0 50 0 0 50 0
50 50 0 50 0 0 50 0 50 100 0 100 0 0 50 0 50 100 0 100 0 0 50 0 50 150 0
150 0 0 50 0 50 50 0 50 0 0 50 0 50 50 0 50 0 0 -100 0 -100 -50 0 -50 0 0
-100 0 -100 -50 0 -50 0 0 -500 0 -500 900 0 900 0 0 50 0 50 50 0 50 0 0 50
0 50 50 0 50 0 0 100 0 100 50 0 50 0 0 350 0 350 -50 0 -50 0 0 50 0 50 -50
0 -50 0 0 100 0 100 -50 0 -50 0 0 50 0 50 -50 0 -50 0 0 50 0 50 -50 0 -50 0
0 50 0 50 -150 0 -150 0 0 50 0 50 -50 0 -50 0 0 100 0 100 -50 0 -50 0 0 100
0 100 -50 0 -50 0 0 50 0 50 -50 0 -50 0 0 50 0 50 -50 0 -50 0 0 50 0 50 -50
0 -50 0 0 50 0 50 -200 0 -200 0 0 -50 0 -50 -50 0 -50 0 0 -500 0 -500 -100
0 -100 0 0 -50 0 -50 -100 0 -100 0 0 -50 0 -50 -100 0 -100 0 0 -50 0 -50
-100 0 -100 0 0 -50 0 -50 -100 0 -100 0 0 -50 0 -50 -50 0 -50 0 0 -50 0 -50
-50 0 -50 0 0 -250 0 -250 -100 0 -100 0 0 -50 0 -50 -50 0 -50 0 0 150 0 150
-50 0 -50 0 0 100 0 100 -50 0 -50 0 0 100 0 100 -50 0 -50 0 0 100 0 100 -50
0 -50 0 0 150 0 150 -50 0 -50 0 0 100 0 100 -50 0 -50 0 0 100 0 100 -50 0
-50 0 0 100 0 100 -50 0 -50 0 0 50 0 50 -50 0 -50 0 0 50 0 50 -100 0 -100 0
0 50 0 50 -50 0 -50 0 0 50 0 50 50 0 50 0 0 50 0 50 50 0 50 0 0 50 0 50 50
0 50 0 0 50 0 50 50 0 50 0 0 50 0 50 50 0 50 0 0 50 0 50 50 0 50 0 0 50 0
50 50 0 50 0 0 50 0 50 50 0 50 0 0 50 0 50 50 0 50 0 0 50 0 50 100 0 100 0
0 50 0 50 100 0 100 0 0 50 0 50 100 0 100 0 0 50 0 50 100 0 100 0 0 50 0 50
100 0 100 0 0 50 0 50 100 0 100 0 0 50 0 50 100 0 100 0 0 50 0 50 100 0 100
0 0 50 0 50 100 0 100 0 0 50 0 50 100 0 100 0 0 50 0 50 100 0 100 0 0 50 0
50 50 0 50 0 0 50 0 50 50 0 50 0 0 50 0 50 50 0 50 0 0 50 0 50 50 0 50 0 0
50 0 50 50 0 50 0 0 50 0 50 50 0 50 0 0 300 0 300 -100 0 -100 0 0 50 0 50
-50 0 -50 0 0 50 0 50 -100 0 -100 0 0 50 0 50 -200 0 -200 0 0 50 0 50 -900
0 -900 0 0 -50z m-2300 -1000 l0 -50 50 0 50 0 0 -50 0 -50 50 0 50 0 0 -300
0 -300 -50 0 -50 0 0 -50 0 -50 -50 0 -50 0 0 -50 0 -50 -150 0 -150 0 0 50 0
50 -50 0 -50 0 0 50 0 50 -50 0 -50 0 0 300 0 300 50 0 50 0 0 50 0 50 50 0
50 0 0 50 0 50 150 0 150 0 0 -50z m900 0 l0 -50 50 0 50 0 0 -50 0 -50 50 0
50 0 0 -300 0 -300 -50 0 -50 0 0 -50 0 -50 -50 0 -50 0 0 -50 0 -50 -100 0
-100 0 0 50 0 50 -50 0 -50 0 0 50 0 50 -50 0 -50 0 0 300 0 300 50 0 50 0 0
50 0 50 50 0 50 0 0 50 0 50 100 0 100 0 0 -50z"/>
</g>
</svg>
