<?xml version="1.0" standalone="no"?>
<!DOCTYPE svg PUBLIC "-//W3C//DTD SVG 20010904//EN"
 "http://www.w3.org/TR/2001/REC-SVG-20010904/DTD/svg10.dtd">
<svg version="1.0" xmlns="http://www.w3.org/2000/svg"
 width="396.000000pt" height="512.000000pt" viewBox="0 0 396.000000 512.000000"
 preserveAspectRatio="xMidYMid meet">

<g transform="translate(0.000000,512.000000) scale(0.100000,-0.100000)"
fill="#000000" stroke="none">
<path d="M1750 4194 c-428 -58 -822 -290 -1086 -639 -221 -292 -334 -630 -334
-995 0 -829 613 -1528 1433 -1635 699 -91 1364 258 1687 886 121 235 180 481
180 749 0 917 -747 1657 -1663 1649 -62 -1 -159 -7 -217 -15z m340 -274 c564
-50 1017 -412 1195 -955 41 -127 58 -244 58 -405 0 -212 -32 -366 -118 -561
-228 -519 -787 -848 -1358 -798 -622 54 -1124 511 -1234 1124 -22 119 -22 351
0 470 75 418 343 782 714 973 201 103 325 136 613 161 8 0 67 -4 130 -9z"/>
<path d="M1200 3335 l-135 -135 320 -320 320 -320 -320 -320 -320 -320 138
-137 137 -138 320 320 320 320 320 -320 320 -320 137 138 138 137 -320 320
-320 320 320 320 320 320 -138 137 -137 138 -320 -320 -320 -320 -318 318
c-174 174 -319 317 -322 317 -3 0 -66 -61 -140 -135z"/>
</g>
</svg>
