<?xml version="1.0" standalone="no"?>
<!DOCTYPE svg PUBLIC "-//W3C//DTD SVG 20010904//EN"
 "http://www.w3.org/TR/2001/REC-SVG-20010904/DTD/svg10.dtd">
<svg version="1.0" xmlns="http://www.w3.org/2000/svg"
 width="256.000000pt" height="256.000000pt" viewBox="0 0 256.000000 256.000000"
 preserveAspectRatio="xMidYMid meet">

<g transform="translate(0.000000,256.000000) scale(0.100000,-0.100000)"
fill="#000000" stroke="none">
<path d="M1210 2276 c0 -34 -1 -35 -42 -38 -42 -3 -43 -4 -46 -39 -2 -26 -9
-38 -21 -42 -16 -4 -19 -17 -20 -98 -1 -51 -4 -96 -7 -100 -2 -4 -29 -5 -59
-2 -51 5 -55 4 -55 -15 0 -17 7 -21 37 -24 27 -2 39 -8 41 -20 2 -13 -3 -18
-17 -18 -14 0 -21 -6 -21 -20 0 -13 -7 -20 -19 -20 -15 0 -21 8 -23 32 -3 31
-28 53 -28 25 0 -9 -10 -17 -22 -19 -19 -2 -24 -10 -26 -45 -3 -35 -7 -43 -23
-43 -15 0 -19 -7 -19 -35 0 -34 1 -35 40 -35 33 0 40 3 40 20 0 16 7 20 34 20
25 0 35 5 39 20 3 12 14 20 26 20 14 0 21 6 21 20 0 13 7 20 20 20 13 0 20 7
20 20 0 13 7 20 20 20 18 0 20 -7 20 -60 0 -53 -2 -60 -20 -60 -13 0 -20 -7
-20 -20 0 -17 -7 -20 -40 -20 -33 0 -40 -3 -40 -20 0 -19 -7 -20 -100 -20
l-100 0 0 -40 0 -40 40 0 c33 0 40 -3 40 -20 0 -13 -7 -20 -20 -20 -15 0 -20
-7 -20 -26 0 -26 -1 -27 -55 -21 -30 3 -59 8 -65 12 -5 3 -10 28 -10 56 0 27
-4 49 -10 49 -5 0 -10 -5 -10 -10 0 -6 -11 -15 -25 -20 -14 -5 -24 -15 -23
-22 2 -7 -7 -14 -19 -16 -13 -2 -23 -12 -25 -25 -2 -17 -11 -23 -35 -25 -35
-3 -51 -32 -40 -71 3 -11 2 -35 -2 -53 -6 -30 -10 -33 -40 -30 -26 3 -34 0
-38 -17 -5 -18 -13 -21 -59 -21 -47 0 -54 -2 -54 -20 0 -16 7 -20 35 -20 28 0
35 -4 35 -20 0 -13 7 -20 20 -20 13 0 20 7 20 20 0 17 7 20 40 20 l40 0 0 -40
c0 -36 3 -40 25 -40 27 0 31 -13 15 -54 -8 -21 -16 -26 -45 -26 -28 0 -35 -4
-35 -20 0 -13 7 -20 20 -20 13 0 20 -7 20 -20 0 -13 7 -20 20 -20 13 0 20 -7
20 -20 0 -13 7 -20 20 -20 22 0 23 -14 24 -280 1 -69 5 -115 11 -115 28 -1 35
-19 35 -91 0 -68 2 -74 21 -74 18 0 20 -5 17 -37 -2 -22 1 -37 7 -36 6 2 11
44 13 95 2 74 0 93 -13 100 -24 14 -19 61 8 73 21 9 22 17 25 123 3 107 1 114
-18 119 -15 4 -20 14 -20 37 0 17 -3 41 -6 54 -5 18 -2 24 15 29 12 3 21 13
21 24 0 12 7 19 20 19 13 0 20 7 20 20 0 13 7 20 20 20 13 0 20 7 20 20 0 14
7 20 25 21 44 2 48 4 52 15 4 12 -40 24 -88 24 -27 0 -29 3 -29 40 l0 40 100
0 100 0 0 -60 c0 -53 -2 -60 -20 -60 -19 0 -20 -7 -20 -100 0 -93 1 -100 20
-100 18 0 20 -7 20 -60 0 -53 -2 -60 -20 -60 -15 0 -20 -7 -20 -25 0 -18 -5
-25 -20 -25 -11 0 -20 -4 -20 -9 0 -13 27 -21 71 -21 38 0 39 -1 39 -34 0 -25
-5 -35 -20 -39 -12 -3 -20 -14 -20 -26 0 -36 -17 -23 -24 19 -5 31 -11 40 -26
40 -11 0 -20 7 -20 15 0 8 -9 15 -20 15 -11 0 -20 -7 -20 -15 0 -8 -9 -15 -20
-15 -13 0 -20 -7 -20 -20 0 -13 7 -20 20 -20 13 0 20 -7 20 -20 0 -13 7 -20
20 -20 13 0 20 -7 20 -20 0 -13 7 -20 20 -20 18 0 20 -7 20 -60 0 -53 2 -60
20 -60 13 0 20 -7 20 -20 0 -13 7 -20 20 -20 17 0 20 -7 20 -40 l0 -40 -59 0
-60 0 -3 -43 c-2 -29 -8 -42 -18 -42 -11 0 -16 -14 -18 -57 l-3 -58 221 0 220
0 0 160 0 160 40 0 c33 0 40 -3 40 -20 0 -13 7 -20 20 -20 13 0 20 -7 20 -20
0 -13 7 -20 20 -20 19 0 20 -7 20 -90 0 -50 1 -93 3 -97 1 -5 -8 -9 -20 -11
-21 -3 -23 -9 -23 -63 l0 -59 160 0 160 0 0 60 c0 52 -2 60 -19 60 -23 0 -29
13 -23 52 3 19 10 28 23 28 15 0 19 7 19 40 l0 40 120 0 c113 0 120 1 120 20
0 17 7 20 40 20 33 0 40 -3 40 -20 0 -17 7 -20 40 -20 33 0 40 -3 40 -20 0
-18 7 -20 80 -20 l80 0 0 60 c0 53 2 60 20 60 13 0 20 -7 20 -20 0 -17 7 -20
40 -20 l40 0 0 40 c0 33 -3 40 -20 40 -13 0 -20 7 -20 20 0 13 -7 20 -19 20
-16 0 -20 8 -23 38 -3 35 -5 37 -40 40 -36 3 -38 5 -38 39 0 26 -5 36 -20 40
-17 5 -20 14 -20 64 0 52 -2 59 -20 59 -13 0 -20 7 -20 20 0 13 -7 20 -20 20
-17 0 -20 7 -20 40 0 33 -3 40 -20 40 -17 0 -20 7 -20 40 0 33 -3 40 -20 40
-16 0 -20 7 -20 36 0 27 -5 37 -20 41 -17 5 -20 14 -20 60 0 46 -3 56 -20 60
-16 4 -20 14 -20 43 0 32 -4 39 -22 42 -22 3 -23 7 -19 76 3 68 2 74 -18 79
-16 4 -21 13 -21 40 0 26 -5 36 -20 40 -18 5 -20 14 -20 84 0 72 -2 79 -20 79
-17 0 -20 7 -20 40 0 29 4 40 15 40 8 0 15 9 15 20 0 19 -7 20 -115 20 -108 0
-115 1 -115 20 0 18 7 20 80 20 67 0 80 3 80 16 0 9 -9 18 -20 21 -11 3 -20
14 -20 24 0 12 7 19 20 19 13 0 20 -7 20 -20 0 -11 7 -20 15 -20 12 0 15 18
15 100 0 82 -3 100 -15 100 -8 0 -15 7 -15 15 0 8 -9 15 -20 15 -11 0 -20 -7
-20 -15 0 -11 -11 -15 -40 -15 -33 0 -40 -3 -40 -20 0 -13 -7 -20 -20 -20 -11
0 -20 7 -20 15 0 9 -9 15 -21 15 -12 0 -23 8 -26 19 -3 11 -15 22 -26 25 -32
8 -34 8 -41 -9 -4 -11 3 -19 20 -25 14 -6 22 -15 19 -21 -4 -6 3 -13 15 -16
14 -4 20 -12 18 -26 -2 -17 -10 -21 -38 -22 -20 0 -35 -5 -35 -12 0 -15 -13
-28 -28 -28 -7 0 -13 -17 -15 -37 -3 -30 -7 -38 -23 -38 -17 0 -19 7 -19 60 0
48 3 60 16 60 9 0 18 9 21 19 3 11 13 21 24 24 25 7 25 37 -1 37 -13 0 -20 -7
-20 -20 0 -13 -7 -20 -20 -20 -13 0 -20 -7 -20 -20 0 -13 -7 -20 -20 -20 -17
0 -20 7 -20 40 0 34 3 40 20 40 20 0 21 5 18 98 l-3 97 -57 3 c-51 3 -58 6
-58 24 0 14 -5 18 -16 14 -11 -4 -18 1 -21 14 -9 34 -33 24 -33 -14z m110 -96
c0 -13 7 -20 20 -20 13 0 20 -7 20 -20 0 -13 -7 -20 -20 -20 -13 0 -20 7 -20
20 0 13 -7 20 -20 20 -13 0 -20 7 -20 20 0 13 7 20 20 20 13 0 20 -7 20 -20z
m40 -280 c0 -53 -2 -60 -20 -60 -13 0 -20 -7 -20 -20 0 -13 -7 -20 -20 -20
-13 0 -20 -7 -20 -20 0 -13 -7 -20 -20 -20 -13 0 -20 7 -20 20 0 13 7 20 20
20 17 0 20 7 20 40 0 33 3 40 20 40 17 0 20 7 20 40 0 33 3 40 20 40 18 0 20
-7 20 -60z m-160 -120 c0 -21 -24 -28 -35 -10 -8 14 3 30 21 30 8 0 14 -9 14
-20z m400 -40 c0 -17 -7 -20 -40 -20 -33 0 -40 -3 -40 -20 0 -13 -7 -20 -20
-20 -12 0 -20 -7 -20 -16 0 -9 -9 -18 -19 -21 -11 -3 -21 -13 -24 -24 -4 -14
-14 -19 -40 -19 -26 0 -36 -5 -40 -20 -4 -17 -14 -20 -61 -20 -49 0 -56 2 -56
20 0 16 -7 20 -36 20 -27 0 -37 5 -41 20 -7 26 -43 27 -43 1 0 -16 -8 -20 -42
-23 -30 -2 -43 -8 -43 -18 0 -8 -7 -15 -15 -15 -8 0 -15 7 -15 15 0 8 -10 16
-22 18 -21 3 -23 -1 -23 -37 0 -34 -3 -41 -20 -41 -17 0 -20 7 -20 40 0 33 3
40 20 40 13 0 20 7 20 20 0 18 7 20 60 20 53 0 60 2 60 20 0 17 7 20 40 20 33
0 40 3 40 20 0 17 7 20 40 20 l40 0 0 -60 0 -60 60 0 c53 0 60 2 60 20 0 17 7
20 40 20 33 0 40 3 40 20 0 13 7 20 20 20 13 0 20 7 20 20 0 13 7 20 20 20 13
0 20 7 20 20 0 17 7 20 40 20 33 0 40 -3 40 -20z m160 -240 c0 -13 7 -20 20
-20 12 0 20 -7 20 -16 0 -9 -9 -18 -20 -21 -11 -3 -20 -14 -20 -24 0 -12 -7
-19 -20 -19 -17 0 -20 -7 -20 -40 0 -33 3 -40 20 -40 17 0 20 -7 20 -40 0 -33
-3 -40 -20 -40 -13 0 -20 7 -20 20 0 13 -7 20 -20 20 -17 0 -20 7 -20 40 0 34
-3 40 -21 40 -14 0 -19 5 -17 18 2 12 14 18 41 20 36 3 37 4 37 43 0 33 -3 39
-22 41 -42 2 -47 3 -53 10 -16 16 10 28 61 28 47 0 54 -2 54 -20z m-596 -68
c9 -15 -9 -29 -42 -34 -35 -5 -47 4 -38 27 6 16 71 21 80 7z m76 -12 c0 -23
-35 -28 -43 -6 -7 18 1 26 25 26 11 0 18 -7 18 -20z m-40 -120 c0 -13 7 -20
20 -20 16 0 20 -7 20 -35 0 -28 -4 -35 -20 -35 -11 0 -20 7 -20 15 0 8 -7 15
-15 15 -8 0 -15 9 -15 20 0 15 -7 20 -25 20 -18 0 -25 5 -25 20 0 17 7 20 40
20 33 0 40 -3 40 -20z m480 -80 c0 -16 -7 -20 -34 -20 -36 0 -52 12 -41 30 3
6 22 10 41 10 27 0 34 -4 34 -20z m-1050 -5 c0 -8 5 -16 10 -16 6 -1 16 -2 23
-3 6 0 12 -7 11 -13 -1 -7 -2 -23 -2 -36 -1 -14 -9 -23 -20 -24 -9 -1 -24 -3
-32 -5 -18 -4 -24 31 -15 78 6 34 25 48 25 19z m520 -30 c0 -10 -10 -15 -30
-15 -39 0 -39 24 0 27 21 2 30 -2 30 -12z m330 -405 c0 -53 -2 -60 -20 -60
-13 0 -20 7 -20 19 0 13 -8 21 -22 23 -13 2 -22 6 -20 11 1 4 2 21 2 37 0 28
2 30 40 30 l40 0 0 -60z m70 -80 c0 -5 -4 -10 -10 -10 -5 0 -10 5 -10 10 0 6
5 10 10 10 6 0 10 -4 10 -10z m45 -60 c0 -22 -5 -30 -17 -30 -20 0 -21 4 -12
38 9 32 29 27 29 -8z m-45 -55 c0 -8 -3 -15 -7 -15 -5 0 -18 -3 -30 -6 -17 -5
-23 -2 -23 9 0 13 9 18 53 26 4 0 7 -6 7 -14z m-22 -71 c31 -9 28 -21 -8 -26
-24 -4 -30 -1 -30 14 0 20 4 21 38 12z m76 -322 c9 -15 -9 -29 -42 -34 -24 -3
-35 0 -42 12 -5 10 -6 20 -3 24 9 9 81 7 87 -2z"/>
<path d="M650 1661 c0 -12 5 -21 10 -21 6 0 10 6 10 14 0 8 -4 18 -10 21 -5 3
-10 -3 -10 -14z"/>
</g>
</svg>
